<?xml version="1.0" standalone="no"?>
<!DOCTYPE svg PUBLIC "-//W3C//DTD SVG 20010904//EN"
 "http://www.w3.org/TR/2001/REC-SVG-20010904/DTD/svg10.dtd">
<svg version="1.0" xmlns="http://www.w3.org/2000/svg"
 width="500.000000pt" height="500.000000pt" viewBox="0 0 500.000000 500.000000"
 preserveAspectRatio="xMidYMid meet">
<metadata>
Created by potrace 1.16, written by Peter Selinger 2001-2019
</metadata>
<g transform="translate(0.000000,500.000000) scale(0.100000,-0.100000)"
fill="#666" stroke="none">
<path d="M3017 4608 c-69 -508 -154 -1143 -185 -1388 l-37 -295 -212 0 c-177
0 -213 2 -213 14 0 8 25 198 55 423 30 225 55 411 55 415 0 11 -285 -6 -337
-20 -176 -50 -343 -179 -427 -330 -50 -90 -73 -167 -90 -307 -9 -69 -18 -139
-21 -156 l-5 -32 -213 -4 c-204 -5 -216 -6 -307 -36 -164 -54 -320 -178 -409
-326 -65 -109 -110 -279 -111 -418 l0 -58 465 0 c256 0 465 -3 465 -6 0 -9
-110 -871 -120 -944 -35 -244 23 -461 168 -621 63 -70 175 -148 255 -177 61
-23 215 -58 222 -50 5 5 19 101 120 863 31 226 62 456 70 511 22 147 20 186
-9 213 -32 30 -82 26 -107 -9 -13 -18 -27 -98 -54 -305 -82 -634 -144 -1087
-150 -1093 -2 -2 -33 11 -70 28 -135 64 -251 207 -290 356 -23 88 -19 171 25
504 23 168 53 400 68 515 19 144 31 210 40 211 6 1 196 2 422 3 407 1 409 1
430 23 27 30 26 73 -5 103 -22 23 -31 25 -125 25 l-100 0 1 33 c0 17 15 136
32 262 l32 230 213 3 c171 2 212 0 212 -11 0 -24 -182 -1424 -195 -1501 l-5
-28 148 4 c129 4 157 8 232 33 201 69 380 249 440 444 11 35 27 118 35 185 8
66 18 136 21 154 l5 32 159 0 c186 0 287 12 382 46 192 70 358 228 437 418 36
87 63 231 59 316 l-3 61 -460 4 -460 4 2 28 c3 30 70 567 103 817 26 193 26
320 0 420 -48 190 -184 362 -350 444 -71 35 -226 81 -276 82 -7 0 -17 -45 -27
-112z m262 -123 c158 -95 261 -276 261 -458 0 -38 -25 -259 -55 -491 -30 -231
-68 -527 -84 -656 -73 -576 -133 -1020 -146 -1078 -39 -167 -163 -313 -322
-377 -79 -31 -173 -47 -179 -30 -3 6 9 114 26 238 17 125 35 259 40 299 5 40
38 298 74 573 36 275 77 588 90 695 68 531 144 1097 167 1253 l12 79 30 -6
c16 -3 55 -22 86 -41z m-1029 -1271 c-28 -214 -69 -519 -90 -677 -22 -158 -40
-290 -40 -293 0 -2 -101 -4 -225 -4 -208 0 -225 1 -225 18 0 9 20 177 45 372
81 636 88 666 173 778 82 108 205 184 334 206 56 10 74 10 76 1 2 -7 -20 -187
-48 -401z m-675 -476 c-3 -18 -16 -127 -30 -243 -14 -115 -28 -220 -30 -232
l-5 -23 -396 0 -396 0 7 33 c47 235 206 416 420 478 47 14 100 18 248 18 l188
1 -6 -32z m2755 25 c0 -5 -7 -36 -15 -71 -22 -92 -77 -192 -145 -266 -71 -76
-136 -119 -228 -154 -62 -24 -83 -26 -271 -30 l-203 -4 6 28 c5 27 66 484 66
498 0 3 178 6 395 6 217 0 395 -3 395 -7z"/>
</g>
</svg>
